<?xml version="1.0" standalone="no"?>
<!DOCTYPE svg PUBLIC "-//W3C//DTD SVG 20010904//EN"
 "http://www.w3.org/TR/2001/REC-SVG-20010904/DTD/svg10.dtd">
<svg version="1.0" xmlns="http://www.w3.org/2000/svg"
 width="268.000000pt" height="258.000000pt" viewBox="0 0 268.000000 258.000000"
 preserveAspectRatio="xMidYMid meet">

<g transform="translate(0.000000,258.000000) scale(0.100000,-0.100000)"
fill="#000000" stroke="none">
<path d="M1200 2514 c-14 -2 -52 -9 -85 -15 -88 -16 -240 -66 -320 -106 -345
-173 -585 -486 -662 -865 -23 -113 -23 -363 -1 -474 89 -431 400 -788 807
-924 160 -54 222 -64 401 -64 146 0 177 3 273 27 237 59 406 151 577 313 184
176 302 395 362 669 18 88 15 361 -6 454 -59 262 -158 445 -340 627 -179 179
-355 276 -616 339 -63 16 -336 29 -390 19z m352 -78 c474 -91 841 -461 933
-940 19 -100 19 -312 0 -412 -82 -430 -384 -772 -795 -902 -143 -45 -227 -55
-402 -49 -155 5 -222 18 -355 67 -378 140 -670 487 -738 880 -65 370 45 739
299 1008 164 174 374 292 606 342 107 23 345 26 452 6z"/>
<path d="M1170 2361 c-169 -31 -358 -112 -476 -203 -137 -106 -229 -213 -307
-359 -94 -173 -134 -352 -124 -553 6 -125 9 -148 31 -232 112 -430 489 -752
933 -797 338 -34 655 82 889 325 131 136 221 296 271 486 23 85 26 117 27 257
0 140 -3 173 -26 265 -48 192 -131 341 -270 485 -151 158 -292 241 -518 305
-58 17 -109 23 -230 25 -85 2 -175 0 -200 -4z m80 -612 c0 -3 -52 -43 -116
-88 -63 -46 -114 -85 -111 -87 2 -2 64 -24 137 -48 l134 -44 64 46 c35 26 73
54 86 62 12 8 38 28 59 43 34 27 39 28 74 17 l37 -13 -30 -25 c-28 -25 -29
-25 -4 -19 14 4 70 10 125 13 216 14 322 -67 252 -191 -24 -43 -45 -51 -104
-40 l-34 6 21 29 c14 19 20 41 18 62 -4 38 -28 53 -111 69 -145 26 -384 -80
-520 -231 -56 -62 -61 -98 -21 -135 33 -31 75 -39 175 -33 64 4 91 11 150 40
l71 35 128 -41 c71 -23 132 -44 135 -48 3 -3 -6 -13 -20 -22 -24 -16 -30 -15
-117 14 l-92 30 -53 -36 c-30 -20 -55 -40 -58 -44 -2 -3 36 -19 85 -35 50 -16
90 -32 90 -35 0 -4 -11 -13 -25 -20 -21 -11 -36 -9 -118 17 l-94 30 -61 -45
c-34 -24 -60 -47 -58 -51 3 -4 43 -18 90 -31 48 -14 86 -27 86 -31 0 -3 -9
-14 -19 -23 -18 -17 -25 -16 -148 24 -70 22 -134 43 -142 46 -12 4 84 82 182
147 15 10 -1 12 -85 12 -86 0 -112 4 -155 24 -65 29 -86 52 -87 96 -1 40 0 40
-30 20 -22 -15 -81 -12 -91 5 -2 4 57 51 131 104 74 54 133 100 130 103 -3 3
-65 25 -138 49 l-132 43 -34 -27 c-19 -15 -44 -33 -56 -41 -11 -8 -60 -43
-108 -77 -84 -61 -88 -62 -122 -52 -20 6 -36 14 -36 17 1 3 32 29 71 56 39 28
94 68 124 90 30 22 67 49 82 60 15 11 94 68 175 126 146 105 148 106 183 95
19 -6 35 -13 35 -17z"/>
</g>
</svg>
